ffmpeg started on 2016-11-27 at 18:56:23
Report written to "Output/NVENCh264/results/ffmpeg/crowd_run_2160p50llhp1500k.log"
Command line:
Tools/ffmpeg/ffmpeg -benchmark -y -i Input/y4m/crowd_run_2160p50.y4m -c:v h264_nvenc -preset llhp -b:v 1500k -an Output/NVENCh264/encoded/crowd_run_2160p50llhp1500k.mkv
ffmpeg version N-82227-gdb23fde Copyright (c) 2000-2016 the FFmpeg developers
  built with gcc 5.4.0 (Ubuntu 5.4.0-6ubuntu1~16.04.2) 20160609
  configuration: --prefix=/home/jaroslav/ffmpeg_build --pkg-config-flags=--static --extra-cflags=-I/home/jaroslav/ffmpeg_build/include --extra-ldflags=-L/home/jaroslav/ffmpeg_build/lib --bindir=/home/jaroslav/bin --enable-gpl --enable-libass --enable-libfdk-aac --enable-libfreetype --enable-libmp3lame --enable-libopus --enable-libtheora --enable-libvorbis --enable-libvpx --enable-libx264 --enable-libx265 --enable-nvenc --enable-libmfx --enable-libxvid --enable-libgsm --enable-libopencore-amrnb --enable-version3 --enable-nonfree
  libavutil      55. 35.100 / 55. 35.100
  libavcodec     57. 66.101 / 57. 66.101
  libavformat    57. 57.100 / 57. 57.100
  libavdevice    57.  2.100 / 57.  2.100
  libavfilter     6. 66.100 /  6. 66.100
  libswscale      4.  3.100 /  4.  3.100
  libswresample   2.  4.100 /  2.  4.100
  libpostproc    54.  2.100 / 54.  2.100
Input #0, yuv4mpegpipe, from 'Input/y4m/crowd_run_2160p50.y4m':
  Duration: 00:00:10.00, start: 0.000000, bitrate: 4976642 kb/s
    Stream #0:0: Video: rawvideo (I420 / 0x30323449), yuv420p(progressive), 3840x2160, SAR 1:1 DAR 16:9, 50 fps, 50 tbr, 50 tbn, 50 tbc
[h264_nvenc @ 0x343d1c0] The variable bitrate rate-control requires the 'qmin' and/or 'qmax' option set.
Output #0, matroska, to 'Output/NVENCh264/encoded/crowd_run_2160p50llhp1500k.mkv':
  Metadata:
    encoder         : Lavf57.57.100
    Stream #0:0: Video: h264 (h264_nvenc) (Main) (H264 / 0x34363248), yuv420p, 3840x2160 [SAR 1:1 DAR 16:9], q=-1--1, 1500 kb/s, 50 fps, 1k tbn, 50 tbc
    Metadata:
      encoder         : Lavc57.66.101 h264_nvenc
    Side data:
      cpb: bitrate max/min/avg: 0/0/1500000 buffer size: 3000000 vbv_delay: -1
Stream mapping:
  Stream #0:0 -> #0:0 (rawvideo (native) -> h264 (h264_nvenc))
Press [q] to stop, [?] for help
frame=   11 fps=0.0 q=0.0 size=       0kB time=00:00:00.00 bitrate=N/A speed=   0x    frame=   23 fps= 20 q=0.0 size=       0kB time=00:00:00.00 bitrate=N/A speed=   0x    frame=   38 fps= 23 q=49.0 size=       1kB time=00:00:00.14 bitrate=  42.3kbits/s speed=0.0859x    frame=   56 fps= 26 q=49.0 size=       1kB time=00:00:00.50 bitrate=  11.9kbits/s speed=0.232x    frame=   74 fps= 28 q=49.0 size=       1kB time=00:00:00.86 bitrate=   6.9kbits/s speed=0.321x    frame=   92 fps= 29 q=49.0 size=       1kB time=00:00:01.22 bitrate=   4.9kbits/s speed=0.381x    frame=  110 fps= 29 q=49.0 size=       1kB time=00:00:01.58 bitrate=   3.8kbits/s speed=0.424x    frame=  128 fps= 30 q=49.0 size=       1kB time=00:00:01.94 bitrate=   3.1kbits/s speed=0.457x    frame=  143 fps= 17 q=49.0 size=       1kB time=00:00:02.24 bitrate=   2.7kbits/s speed=0.266x    frame=  146 fps= 16 q=49.0 size=       1kB time=00:00:02.30 bitrate=   2.6kbits/s speed=0.258x    frame=  164 fps= 17 q=49.0 size=       1kB time=00:00:02.66 bitrate=   2.2kbits/s speed=0.281x    frame=  174 fps= 17 q=49.0 size=       1kB time=00:00:02.86 bitrate=   2.1kbits/s speed=0.287x    frame=  191 fps= 18 q=49.0 size=       1kB time=00:00:03.20 bitrate=   1.9kbits/s speed=0.305x    frame=  208 fps= 19 q=49.0 size=       1kB time=00:00:03.54 bitrate=   1.7kbits/s speed=0.322x    frame=  225 fps= 20 q=49.0 size=       1kB time=00:00:03.88 bitrate=   1.5kbits/s speed=0.337x    frame=  243 fps= 20 q=49.0 size=       1kB time=00:00:04.24 bitrate=   1.4kbits/s speed=0.352x    frame=  261 fps= 21 q=49.0 size=       1kB time=00:00:04.60 bitrate=   1.3kbits/s speed=0.366x    frame=  279 fps= 21 q=49.0 size=       1kB time=00:00:04.96 bitrate=   1.2kbits/s speed=0.379x    frame=  296 fps= 22 q=49.0 size=    3027kB time=00:00:05.30 bitrate=4677.9kbits/s speed=0.39x    frame=  314 fps= 22 q=49.0 size=    3027kB time=00:00:05.66 bitrate=4380.4kbits/s speed=0.401x    frame=  332 fps= 23 q=49.0 size=    3027kB time=00:00:06.02 bitrate=4118.5kbits/s speed=0.412x    frame=  350 fps= 23 q=49.0 size=    3027kB time=00:00:06.38 bitrate=3886.1kbits/s speed=0.421x    frame=  368 fps= 23 q=49.0 size=    3027kB time=00:00:06.74 bitrate=3678.6kbits/s speed=0.43x    frame=  386 fps= 24 q=49.0 size=    3027kB time=00:00:07.10 bitrate=3492.1kbits/s speed=0.439x    frame=  404 fps= 24 q=49.0 size=    3027kB time=00:00:07.46 bitrate=3323.6kbits/s speed=0.447x    frame=  422 fps= 25 q=49.0 size=    3027kB time=00:00:07.82 bitrate=3170.6kbits/s speed=0.454x    frame=  431 fps= 24 q=49.0 size=    3027kB time=00:00:08.00 bitrate=3099.3kbits/s speed=0.451x    frame=  449 fps= 25 q=49.0 size=    3027kB time=00:00:08.36 bitrate=2965.8kbits/s speed=0.458x    frame=  467 fps= 25 q=49.0 size=    3027kB time=00:00:08.72 bitrate=2843.4kbits/s speed=0.465x    frame=  485 fps= 25 q=49.0 size=    3027kB time=00:00:09.08 bitrate=2730.7kbits/s speed=0.471x    frame=  499 fps= 25 q=49.0 size=    3027kB time=00:00:09.36 bitrate=2649.0kbits/s speed=0.47x    frame=  500 fps= 25 q=49.0 Lsize=    6275kB time=00:00:09.98 bitrate=5150.5kbits/s speed=0.499x    
video:6271kB audio:0kB subtitle:0kB other streams:0kB global headers:0kB muxing overhead: 0.067710%
bench: utime=1.212s
bench: maxrss=1396884kB
